<?xml version="1.0" encoding="UTF-8"?>
<svg id="Layer_1" data-name="Layer 1" xmlns="https://www.w3.org/2000/svg" viewBox="0 0 151 35">
  <defs>
    <style>
      .cls-1 {
        fill: #4e55e1;
        stroke: #4e55e1;
        stroke-miterlimit: 10;
        stroke-width: .6px;
      }
    </style>
  </defs>
  <path class="cls-1" d="M.17,12.33C-.3,3.64,20.49-7.02,20.77,7.83c0,2.49-4.27,2.47-4.21-.05-.16-9.1-17.66,2.64-9.87,6.89,2.48,1.33,5.54,2.23,8.25,3.34,8.48-4.77,17.6-6.57,17.6-6.57,2.61-.57,3.67,3.22.92,3.82,0,0-6.81,1.54-13.79,4.88,9.54,5.14-.72,13.86-8.54,14.25-12.65,1.59-7.65-9.82-.35-13.72C6.58,19.12.11,17.05.17,12.33ZM15.46,22.4c-2.65,1.64-5.08,3.5-6.87,5.72-5.7,6.78,20.23-1.72,6.87-5.72Z"/>
  <path class="cls-1" d="M42.9.3c4.27-.26,6.17,3.02,6.52,6.31.05,2.48-4.15,2.61-4.21.11-.12-1.32-.92-2.6-2.13-2.54-6.33,2.81-11.72,18.26-9.12,22.95,6.93,1.99,17.56-9.14,23.31-13.83,1.68-1.82,5.01.82,3,2.7C18.13,56.26,25.06,5.89,42.9.3Z"/>
  <path class="cls-1" d="M62.24,4.91c16.68-14.93,17.52,16.79-1.79,12.67-2.62,7.7-.76,16.65,8.54,10.81,3.87-2.33,9.06-7.1,15.52-14.84.69-.85,2.02-1.01,2.94-.37,4.01,3.47-16.43,18.98-16.15,18.44-19.48,11.29-19.14-17.04-9.06-26.71ZM70.78,6.98c-1.09-7.02-8.13,3.75-9.06,6.89,4.49,1.08,9.61-2.5,9.06-6.89Z"/>
  <path class="cls-1" d="M86.88,7.19c.67-2.24,5.02-1.44,4.04,1.06,0,0-2.83,8.96-2.83,8.96,2.69-4.38,13.88-16.14,16.68-5.88.63,4.98-2.31,13.51-.64,14.41,5.19-.92,10.08-5.63,14.6-8.96.86-.74,2.25-.64,3,.16,2.11,3.43-5.87,6.38-7.15,8.11-11.51,8.35-17.85,5.51-14.14-9.91.35-3.87.58-5.41-3.06-2.17-6.06,5.41-9.69,11.39-13.73,18.18-1.06,1.92-4.65.75-3.92-1.48,0,0,7.15-22.47,7.15-22.47Z"/>
  <path class="cls-1" d="M124.79,4.91c16.68-14.93,17.52,16.79-1.79,12.67-2.62,7.7-.76,16.65,8.54,10.81,3.87-2.33,9.06-7.1,15.52-14.84.69-.85,2.02-1.01,2.94-.37,4.01,3.47-16.43,18.98-16.16,18.44-19.48,11.29-19.14-17.04-9.06-26.71ZM133.33,6.98c-1.09-7.02-8.13,3.75-9.06,6.89,4.49,1.08,9.62-2.5,9.06-6.89Z"/>
</svg>