<svg width="375" height="808" viewBox="0 0 375 808" fill="none" xmlns="https://www.w3.org/2000/svg">
<g clip-path="url(#clip0_302_26766)">
<rect width="375" height="808" fill="#4E55E1"/>
<g clip-path="url(#clip1_302_26766)">
<g opacity="0.1">
<path d="M-34.1444 284.92C-33.258 196.99 94.3908 91.963 199.878 100.919C255.725 105.804 280.545 159.539 282.318 215.716C282.318 231.999 267.249 245.026 249.52 245.026C231.79 245.026 217.607 231.185 217.607 214.902C214.948 138.37 139.6 157.096 89.0721 197.804C50.9548 229.557 -0.459343 284.92 66.0244 320.743C90.884 334.018 119.514 344.522 147.98 354.966C163.161 360.536 178.296 366.089 192.787 372.036C323.095 298.761 463.154 271.079 463.154 271.079C480.883 267.823 497.725 277.593 502.158 293.876C505.704 310.159 495.066 325.628 477.337 329.699C477.337 329.699 372.736 353.31 265.476 404.602C303.593 425.77 331.073 452.638 323.095 498.231C312.457 566.621 212.289 613.028 134.281 623.612C67.7973 632.568 3.97291 617.099 13.7239 547.895C20.8155 494.974 81.9805 447.753 128.962 412.744C125.499 411.48 121.937 410.193 118.296 408.878C53.9116 385.618 -34.9834 353.503 -34.1444 284.92ZM200.765 439.611C159.988 464.85 122.757 493.346 95.2772 527.541C70.4566 557.665 74.0024 573.948 125.417 564.178C173.285 555.223 244.201 534.869 260.157 487.647C265.911 469.151 235.485 455.479 213.858 445.76C208.829 443.5 204.277 441.454 200.765 439.611Z" fill="white"/>
<path d="M-34.1444 284.92C-33.258 196.99 94.3908 91.963 199.878 100.919C255.725 105.804 280.545 159.539 282.318 215.716C282.318 231.999 267.249 245.026 249.52 245.026C231.79 245.026 217.607 231.185 217.607 214.902C214.948 138.37 139.6 157.096 89.0721 197.804C50.9548 229.557 -0.459343 284.92 66.0244 320.743C90.884 334.018 119.514 344.522 147.98 354.966C163.161 360.536 178.296 366.089 192.787 372.036C323.095 298.761 463.154 271.079 463.154 271.079C480.883 267.823 497.725 277.593 502.158 293.876C505.704 310.159 495.066 325.628 477.337 329.699C477.337 329.699 372.736 353.31 265.476 404.602C303.593 425.77 331.073 452.638 323.095 498.231C312.457 566.621 212.289 613.028 134.281 623.612C67.7973 632.568 3.97291 617.099 13.7239 547.895C20.8155 494.974 81.9805 447.753 128.962 412.744C125.499 411.48 121.937 410.193 118.296 408.878C53.9116 385.618 -34.9834 353.503 -34.1444 284.92ZM200.765 439.611C159.988 464.85 122.757 493.346 95.2772 527.541C70.4566 557.665 74.0024 573.948 125.417 564.178C173.285 555.223 244.201 534.869 260.157 487.647C265.911 469.151 235.485 455.479 213.858 445.76C208.829 443.5 204.277 441.454 200.765 439.611Z" stroke="white"/>
</g>
<path d="M145.12 262.134C144.739 262.828 144.338 263.622 143.939 264.486C143.68 264.544 143.334 264.624 142.912 264.728C141.92 264.973 140.509 265.349 138.833 265.874C135.515 266.914 131.148 268.542 126.923 270.902C126.015 270.533 125.068 270.186 124.124 269.84C123.693 269.681 123.262 269.523 122.836 269.364C121.425 268.835 120.056 268.284 118.834 267.632C117.793 267.071 117.256 266.456 117.034 265.849C116.811 265.243 116.882 264.591 117.166 263.911C117.741 262.535 119.144 261.158 120.382 260.126C122.001 258.823 123.983 257.901 125.546 257.889C126.319 257.882 126.963 258.097 127.427 258.569C127.892 259.042 128.216 259.816 128.259 261.012C128.262 262.249 129.332 263.268 130.636 263.268C131.92 263.268 133.071 262.319 133.071 261.06H133.071L133.071 261.05C133.012 259.186 132.57 257.34 131.661 255.911C130.745 254.472 129.354 253.457 127.431 253.289L127.43 253.289L145.383 262.279M145.12 262.134C145.12 262.134 145.12 262.134 145.12 262.134L145.383 262.279M145.12 262.134C145.12 262.135 145.12 262.135 145.12 262.135L145.383 262.279M145.12 262.134C146.018 260.485 147.301 258.34 148.927 256.571C150.55 254.806 152.55 253.375 154.885 253.235M145.383 262.279C147.172 258.993 150.461 253.8 154.903 253.535M154.885 253.235C154.885 253.235 154.885 253.235 154.885 253.235L154.903 253.535M154.885 253.235C157.111 253.097 158.745 253.888 159.86 255.158C160.966 256.418 161.544 258.126 161.722 259.809L161.723 259.825V259.841C161.723 261.077 160.656 262.098 159.353 262.102C158.046 262.158 156.982 261.195 156.912 259.968C156.858 259.355 156.644 258.765 156.318 258.342C155.993 257.921 155.575 257.682 155.091 257.703C154.659 257.725 154.139 257.998 153.563 258.488C152.996 258.97 152.416 259.628 151.867 260.342C150.769 261.769 149.826 263.383 149.397 264.171C148.257 266.264 146.91 269.763 146.129 273.014C145.739 274.639 145.494 276.187 145.482 277.459C145.471 278.752 145.702 279.672 146.171 280.136C146.67 280.625 147.561 280.701 148.782 280.398C149.98 280.1 151.386 279.465 152.784 278.708C155.259 277.368 157.655 275.676 158.757 274.898C158.899 274.798 159.02 274.713 159.116 274.645C162.031 272.598 165.237 269.814 169.026 266.335M154.885 253.235C154.885 253.235 154.886 253.235 154.886 253.235L154.903 253.535M154.903 253.535L230.455 269.85C228.131 271.772 226.034 273.334 224.217 274.585C224.049 274.686 223.747 274.883 223.359 275.136C223.155 275.269 222.928 275.417 222.683 275.575C221.96 276.043 221.077 276.603 220.188 277.123C219.298 277.644 218.411 278.119 217.676 278.421C217.309 278.572 216.991 278.675 216.737 278.72C216.47 278.769 216.332 278.743 216.276 278.711L216.276 278.711L216.27 278.707C216.17 278.654 216.065 278.521 215.992 278.226C215.921 277.936 215.895 277.541 215.91 277.049C215.94 276.067 216.128 274.779 216.352 273.341C216.381 273.159 216.41 272.975 216.439 272.789C216.868 270.059 217.364 266.901 217.06 264.519L217.06 264.516C216.819 262.773 215.968 261.422 214.695 260.712C213.42 260.001 211.776 259.961 210.007 260.732L210.005 260.733C206.125 262.468 203.23 265.907 200.881 268.923L203.199 261.581L202.915 261.484L203.201 261.574L203.2 261.577C203.396 261.005 203.367 260.388 203.085 259.87C202.799 259.346 202.272 258.953 201.531 258.805L201.53 258.804C200.908 258.684 200.263 258.805 199.734 259.077C199.208 259.348 198.765 259.787 198.59 260.332L198.59 260.333L196.73 266.175C196.565 266.292 196.414 266.431 196.283 266.592C189.83 274.318 184.664 279.056 180.842 281.362C179.723 281.995 178.468 282.626 177.219 282.947C175.969 283.267 174.758 283.269 173.695 282.683L173.692 282.682C172.938 282.276 172.43 281.584 172.112 280.688C171.792 279.789 171.668 278.7 171.679 277.537C171.699 275.328 172.2 272.914 172.668 271.165C174.349 271.502 176.392 271.391 178.294 270.985C180.301 270.556 182.2 269.786 183.377 268.816L183.379 268.814C185.963 266.632 187.339 263.178 187.279 260.14C187.25 258.618 186.859 257.18 186.059 256.055C185.255 254.924 184.047 254.125 182.425 253.874C180.712 253.594 178.995 254.186 177.531 255.044C176.063 255.905 174.813 257.053 174.019 257.945M174.019 257.945C174.019 257.945 174.018 257.945 174.018 257.946L174.242 258.145L174.019 257.945ZM174.019 257.945C171.877 260.344 170.205 263.253 169.026 266.335M169.026 266.335C168.948 266.54 168.871 266.745 168.798 266.952C165.194 270.248 162.109 272.91 159.289 274.891C159.193 274.958 159.073 275.042 158.931 275.143C156.589 276.796 148.3 282.648 145.96 280.349C143.71 278.124 146.826 268.267 149.134 264.027C149.999 262.438 152.942 257.509 155.077 257.403C156.288 257.35 157.096 258.622 157.211 259.947C157.269 261.007 158.192 261.855 159.346 261.802M131.992 273.535C131.888 273.474 131.782 273.414 131.674 273.354C131.785 273.301 131.896 273.249 132.006 273.197C132.112 273.257 132.217 273.319 132.321 273.381C132.211 273.432 132.102 273.483 131.992 273.535ZM141.994 269.418C141.956 269.534 141.918 269.65 141.881 269.765C142 269.73 142.116 269.695 142.23 269.661C142.268 269.545 142.306 269.43 142.344 269.314C142.23 269.348 142.113 269.383 141.994 269.418ZM236.787 258.145L236.563 257.945C236.563 257.945 236.563 257.945 236.563 257.946L236.787 258.145Z" fill="white" stroke="white" stroke-width="0.6"/>
<path d="M89.868 323.76V313.941H91.695L91.929 317.64L91.776 316.893C91.848 316.353 91.989 315.843 92.199 315.363C92.409 314.877 92.727 314.484 93.153 314.184C93.579 313.884 94.146 313.734 94.854 313.734C95.64 313.734 96.273 313.959 96.753 314.409C97.239 314.853 97.539 315.537 97.653 316.461L97.698 316.605V323.76H95.565V317.991C95.565 317.427 95.511 316.974 95.403 316.632C95.295 316.29 95.124 316.044 94.89 315.894C94.662 315.738 94.359 315.66 93.981 315.66C93.537 315.66 93.135 315.792 92.775 316.056C92.415 316.314 92.157 316.608 92.001 316.938V323.76H89.868ZM101.262 323.76V317.991C101.262 317.427 101.208 316.974 101.1 316.632C100.992 316.29 100.821 316.044 100.587 315.894C100.359 315.738 100.056 315.66 99.678 315.66C99.234 315.66 98.832 315.792 98.472 316.056C98.112 316.314 97.854 316.608 97.698 316.938L97.68 317.64L97.536 317.055C97.596 316.521 97.725 316.002 97.923 315.498C98.127 314.988 98.439 314.568 98.859 314.238C99.279 313.902 99.843 313.734 100.551 313.734C101.439 313.734 102.135 314.025 102.639 314.607C103.143 315.183 103.395 316.065 103.395 317.253V323.76H101.262ZM106.04 323.76V313.941H108.191L108.164 323.76H106.04ZM107.129 312.483C106.739 312.483 106.409 312.348 106.139 312.078C105.869 311.802 105.734 311.451 105.734 311.025C105.734 310.605 105.869 310.263 106.139 309.999C106.409 309.735 106.739 309.603 107.129 309.603C107.507 309.603 107.831 309.735 108.101 309.999C108.377 310.263 108.515 310.605 108.515 311.025C108.515 311.451 108.377 311.802 108.101 312.078C107.831 312.348 107.507 312.483 107.129 312.483ZM110.856 323.76V313.941H112.674L112.908 317.64L112.755 316.893C112.827 316.353 112.968 315.843 113.178 315.363C113.394 314.877 113.715 314.484 114.141 314.184C114.567 313.884 115.137 313.734 115.851 313.734C116.781 313.734 117.501 314.025 118.011 314.607C118.521 315.183 118.776 316.065 118.776 317.253V323.76H116.652V317.991C116.652 317.427 116.595 316.974 116.481 316.632C116.373 316.29 116.196 316.044 115.95 315.894C115.704 315.738 115.377 315.66 114.969 315.66C114.525 315.66 114.12 315.792 113.754 316.056C113.394 316.314 113.136 316.608 112.98 316.938V323.76H110.856ZM125.361 323.895C124.413 323.895 123.591 323.703 122.895 323.319C122.205 322.929 121.674 322.356 121.302 321.6C120.93 320.844 120.744 319.917 120.744 318.819C120.744 317.751 120.939 316.839 121.329 316.083C121.725 315.321 122.268 314.742 122.958 314.346C123.648 313.944 124.44 313.743 125.334 313.743C126.216 313.743 126.969 313.917 127.593 314.265C128.223 314.613 128.703 315.129 129.033 315.813C129.363 316.491 129.528 317.325 129.528 318.315C129.528 318.507 129.522 318.666 129.51 318.792C129.504 318.918 129.495 319.068 129.483 319.242H122.859C122.913 320.244 123.159 320.982 123.597 321.456C124.035 321.924 124.572 322.158 125.208 322.158C125.802 322.158 126.255 322.032 126.567 321.78C126.885 321.522 127.089 321.234 127.179 320.916H129.231C129.177 321.546 128.979 322.086 128.637 322.536C128.295 322.98 127.842 323.319 127.278 323.553C126.72 323.781 126.081 323.895 125.361 323.895ZM123.831 317.793H127.413C127.395 317.073 127.221 316.518 126.891 316.128C126.561 315.732 126.018 315.534 125.262 315.534C124.476 315.534 123.891 315.798 123.507 316.326C123.123 316.848 122.907 317.571 122.859 318.495C122.907 318.225 123.009 318.042 123.165 317.946C123.321 317.844 123.543 317.793 123.831 317.793ZM134.657 323.76V313.941H136.808L136.781 323.76H134.657ZM135.746 312.483C135.356 312.483 135.026 312.348 134.756 312.078C134.486 311.802 134.351 311.451 134.351 311.025C134.351 310.605 134.486 310.263 134.756 309.999C135.026 309.735 135.356 309.603 135.746 309.603C136.124 309.603 136.448 309.735 136.718 309.999C136.994 310.263 137.132 310.605 137.132 311.025C137.132 311.451 136.994 311.802 136.718 312.078C136.448 312.348 136.124 312.483 135.746 312.483ZM142.671 323.913C141.933 323.913 141.273 323.805 140.691 323.589C140.115 323.373 139.656 323.04 139.314 322.59C138.978 322.134 138.792 321.552 138.756 320.844H140.808C140.886 321.348 141.087 321.705 141.411 321.915C141.741 322.125 142.146 322.23 142.626 322.23C142.974 322.23 143.283 322.197 143.553 322.131C143.829 322.059 144.045 321.942 144.201 321.78C144.363 321.612 144.444 321.387 144.444 321.105C144.444 320.907 144.399 320.745 144.309 320.619C144.225 320.487 144.093 320.373 143.913 320.277C143.739 320.181 143.517 320.091 143.247 320.007C142.983 319.923 142.677 319.83 142.329 319.728C141.705 319.548 141.138 319.335 140.628 319.089C140.118 318.843 139.713 318.522 139.413 318.126C139.113 317.724 138.963 317.202 138.963 316.56C138.963 315.684 139.287 315 139.935 314.508C140.583 314.01 141.417 313.761 142.437 313.761C143.097 313.761 143.691 313.857 144.219 314.049C144.753 314.235 145.191 314.547 145.533 314.985C145.875 315.417 146.097 316.005 146.199 316.749L144.147 316.74C144.057 316.392 143.925 316.125 143.751 315.939C143.577 315.747 143.376 315.615 143.148 315.543C142.926 315.465 142.683 315.426 142.419 315.426C142.131 315.426 141.882 315.471 141.672 315.561C141.462 315.651 141.3 315.777 141.186 315.939C141.072 316.101 141.015 316.296 141.015 316.524C141.015 316.788 141.09 317.01 141.24 317.19C141.396 317.364 141.627 317.517 141.933 317.649C142.245 317.775 142.632 317.907 143.094 318.045C143.466 318.153 143.85 318.273 144.246 318.405C144.642 318.531 145.011 318.693 145.353 318.891C145.695 319.089 145.971 319.353 146.181 319.683C146.391 320.007 146.496 320.43 146.496 320.952C146.496 321.882 146.145 322.608 145.443 323.13C144.747 323.652 143.823 323.913 142.671 323.913ZM155.134 323.913C154.396 323.913 153.736 323.805 153.154 323.589C152.578 323.373 152.119 323.04 151.777 322.59C151.441 322.134 151.255 321.552 151.219 320.844H153.271C153.349 321.348 153.55 321.705 153.874 321.915C154.204 322.125 154.609 322.23 155.089 322.23C155.437 322.23 155.746 322.197 156.016 322.131C156.292 322.059 156.508 321.942 156.664 321.78C156.826 321.612 156.907 321.387 156.907 321.105C156.907 320.907 156.862 320.745 156.772 320.619C156.688 320.487 156.556 320.373 156.376 320.277C156.202 320.181 155.98 320.091 155.71 320.007C155.446 319.923 155.14 319.83 154.792 319.728C154.168 319.548 153.601 319.335 153.091 319.089C152.581 318.843 152.176 318.522 151.876 318.126C151.576 317.724 151.426 317.202 151.426 316.56C151.426 315.684 151.75 315 152.398 314.508C153.046 314.01 153.88 313.761 154.9 313.761C155.56 313.761 156.154 313.857 156.682 314.049C157.216 314.235 157.654 314.547 157.996 314.985C158.338 315.417 158.56 316.005 158.662 316.749L156.61 316.74C156.52 316.392 156.388 316.125 156.214 315.939C156.04 315.747 155.839 315.615 155.611 315.543C155.389 315.465 155.146 315.426 154.882 315.426C154.594 315.426 154.345 315.471 154.135 315.561C153.925 315.651 153.763 315.777 153.649 315.939C153.535 316.101 153.478 316.296 153.478 316.524C153.478 316.788 153.553 317.01 153.703 317.19C153.859 317.364 154.09 317.517 154.396 317.649C154.708 317.775 155.095 317.907 155.557 318.045C155.929 318.153 156.313 318.273 156.709 318.405C157.105 318.531 157.474 318.693 157.816 318.891C158.158 319.089 158.434 319.353 158.644 319.683C158.854 320.007 158.959 320.43 158.959 320.952C158.959 321.882 158.608 322.608 157.906 323.13C157.21 323.652 156.286 323.913 155.134 323.913ZM164.902 323.895C163.996 323.895 163.207 323.7 162.535 323.31C161.863 322.92 161.341 322.347 160.969 321.591C160.597 320.829 160.411 319.896 160.411 318.792C160.411 317.748 160.606 316.848 160.996 316.092C161.392 315.336 161.932 314.757 162.616 314.355C163.3 313.947 164.074 313.743 164.938 313.743C165.874 313.743 166.675 313.947 167.341 314.355C168.013 314.757 168.529 315.336 168.889 316.092C169.249 316.848 169.429 317.748 169.429 318.792C169.429 319.896 169.228 320.829 168.826 321.591C168.43 322.347 167.89 322.92 167.206 323.31C166.522 323.7 165.754 323.895 164.902 323.895ZM164.938 322.086C165.628 322.086 166.192 321.828 166.63 321.312C167.068 320.796 167.287 319.956 167.287 318.792C167.287 317.712 167.074 316.902 166.648 316.362C166.222 315.822 165.64 315.552 164.902 315.552C164.212 315.552 163.648 315.819 163.21 316.353C162.778 316.887 162.562 317.7 162.562 318.792C162.562 319.902 162.781 320.73 163.219 321.276C163.663 321.816 164.236 322.086 164.938 322.086ZM171.448 323.76V313.941H173.266L173.5 317.721L173.311 317.199C173.353 316.803 173.431 316.401 173.545 315.993C173.665 315.585 173.833 315.21 174.049 314.868C174.271 314.526 174.553 314.253 174.895 314.049C175.243 313.839 175.666 313.734 176.164 313.734C176.284 313.734 176.404 313.74 176.524 313.752C176.644 313.764 176.755 313.785 176.857 313.815V316.083C176.653 316.017 176.434 315.975 176.2 315.957C175.972 315.933 175.762 315.921 175.57 315.921C175.336 315.921 175.084 315.969 174.814 316.065C174.544 316.155 174.295 316.293 174.067 316.479C173.839 316.665 173.674 316.896 173.572 317.172V323.76H171.448ZM181.731 323.904C180.951 323.904 180.342 323.706 179.904 323.31C179.472 322.908 179.256 322.335 179.256 321.591V316.623C179.256 316.425 179.298 316.248 179.382 316.092C179.466 315.93 179.589 315.828 179.751 315.786L179.256 314.328V314.067L179.733 311.124H181.353V321.06C181.353 321.408 181.428 321.651 181.578 321.789C181.734 321.927 182.022 321.996 182.442 321.996C182.712 321.996 182.961 321.996 183.189 321.996C183.417 321.99 183.624 321.984 183.81 321.978V323.787C183.498 323.841 183.156 323.874 182.784 323.886C182.412 323.898 182.061 323.904 181.731 323.904ZM177.969 315.786V313.941H183.828V315.786H177.969ZM189.574 323.895C188.626 323.895 187.804 323.703 187.108 323.319C186.418 322.929 185.887 322.356 185.515 321.6C185.143 320.844 184.957 319.917 184.957 318.819C184.957 317.751 185.152 316.839 185.542 316.083C185.938 315.321 186.481 314.742 187.171 314.346C187.861 313.944 188.653 313.743 189.547 313.743C190.429 313.743 191.182 313.917 191.806 314.265C192.436 314.613 192.916 315.129 193.246 315.813C193.576 316.491 193.741 317.325 193.741 318.315C193.741 318.507 193.735 318.666 193.723 318.792C193.717 318.918 193.708 319.068 193.696 319.242H187.072C187.126 320.244 187.372 320.982 187.81 321.456C188.248 321.924 188.785 322.158 189.421 322.158C190.015 322.158 190.468 322.032 190.78 321.78C191.098 321.522 191.302 321.234 191.392 320.916H193.444C193.39 321.546 193.192 322.086 192.85 322.536C192.508 322.98 192.055 323.319 191.491 323.553C190.933 323.781 190.294 323.895 189.574 323.895ZM188.044 317.793H191.626C191.608 317.073 191.434 316.518 191.104 316.128C190.774 315.732 190.231 315.534 189.475 315.534C188.689 315.534 188.104 315.798 187.72 316.326C187.336 316.848 187.12 317.571 187.072 318.495C187.12 318.225 187.222 318.042 187.378 317.946C187.534 317.844 187.756 317.793 188.044 317.793ZM199.148 323.868C198.302 323.868 197.594 323.649 197.024 323.211C196.454 322.773 196.025 322.173 195.737 321.411C195.449 320.643 195.305 319.77 195.305 318.792C195.305 317.682 195.491 316.755 195.863 316.011C196.241 315.261 196.727 314.697 197.321 314.319C197.915 313.941 198.548 313.752 199.22 313.752C199.874 313.752 200.387 313.86 200.759 314.076C201.131 314.292 201.404 314.544 201.578 314.832C201.752 315.12 201.863 315.378 201.911 315.606L202.532 315.687L201.794 316.452C201.746 316.302 201.65 316.158 201.506 316.02C201.368 315.876 201.167 315.759 200.903 315.669C200.645 315.579 200.309 315.534 199.895 315.534C199.193 315.534 198.614 315.792 198.158 316.308C197.702 316.824 197.474 317.667 197.474 318.837C197.474 319.887 197.681 320.7 198.095 321.276C198.515 321.852 199.061 322.14 199.733 322.14C200.189 322.14 200.558 322.065 200.84 321.915C201.128 321.765 201.35 321.594 201.506 321.402C201.662 321.204 201.758 321.042 201.794 320.916L201.884 321.222L201.794 321.546C201.764 321.738 201.704 321.966 201.614 322.23C201.524 322.488 201.38 322.743 201.182 322.995C200.99 323.247 200.729 323.457 200.399 323.625C200.069 323.787 199.652 323.868 199.148 323.868ZM201.803 323.76L201.794 309.756H203.909V323.76H201.803ZM205.901 327.504C206.003 327.162 206.093 326.769 206.171 326.325C206.255 325.881 206.321 325.389 206.369 324.849C206.423 324.309 206.45 323.733 206.45 323.121V321.258H208.655L208.628 322.662C208.622 323.406 208.55 324.099 208.412 324.741C208.28 325.389 208.127 325.95 207.953 326.424C207.785 326.898 207.635 327.258 207.503 327.504H205.901ZM214.269 323.76V313.941H216.42L216.393 323.76H214.269ZM215.358 312.483C214.968 312.483 214.638 312.348 214.368 312.078C214.098 311.802 213.963 311.451 213.963 311.025C213.963 310.605 214.098 310.263 214.368 309.999C214.638 309.735 214.968 309.603 215.358 309.603C215.736 309.603 216.06 309.735 216.33 309.999C216.606 310.263 216.744 310.605 216.744 311.025C216.744 311.451 216.606 311.802 216.33 312.078C216.06 312.348 215.736 312.483 215.358 312.483ZM222.282 323.913C221.544 323.913 220.884 323.805 220.302 323.589C219.726 323.373 219.267 323.04 218.925 322.59C218.589 322.134 218.403 321.552 218.367 320.844H220.419C220.497 321.348 220.698 321.705 221.022 321.915C221.352 322.125 221.757 322.23 222.237 322.23C222.585 322.23 222.894 322.197 223.164 322.131C223.44 322.059 223.656 321.942 223.812 321.78C223.974 321.612 224.055 321.387 224.055 321.105C224.055 320.907 224.01 320.745 223.92 320.619C223.836 320.487 223.704 320.373 223.524 320.277C223.35 320.181 223.128 320.091 222.858 320.007C222.594 319.923 222.288 319.83 221.94 319.728C221.316 319.548 220.749 319.335 220.239 319.089C219.729 318.843 219.324 318.522 219.024 318.126C218.724 317.724 218.574 317.202 218.574 316.56C218.574 315.684 218.898 315 219.546 314.508C220.194 314.01 221.028 313.761 222.048 313.761C222.708 313.761 223.302 313.857 223.83 314.049C224.364 314.235 224.802 314.547 225.144 314.985C225.486 315.417 225.708 316.005 225.81 316.749L223.758 316.74C223.668 316.392 223.536 316.125 223.362 315.939C223.188 315.747 222.987 315.615 222.759 315.543C222.537 315.465 222.294 315.426 222.03 315.426C221.742 315.426 221.493 315.471 221.283 315.561C221.073 315.651 220.911 315.777 220.797 315.939C220.683 316.101 220.626 316.296 220.626 316.524C220.626 316.788 220.701 317.01 220.851 317.19C221.007 317.364 221.238 317.517 221.544 317.649C221.856 317.775 222.243 317.907 222.705 318.045C223.077 318.153 223.461 318.273 223.857 318.405C224.253 318.531 224.622 318.693 224.964 318.891C225.306 319.089 225.582 319.353 225.792 319.683C226.002 320.007 226.107 320.43 226.107 320.952C226.107 321.882 225.756 322.608 225.054 323.13C224.358 323.652 223.434 323.913 222.282 323.913ZM231.316 327.639V325.659H232.09C232.522 325.659 232.855 325.62 233.089 325.542C233.329 325.464 233.506 325.347 233.62 325.191C233.74 325.035 233.827 324.846 233.881 324.624C233.947 324.36 234.019 324.162 234.097 324.03C234.181 323.904 234.28 323.814 234.394 323.76H233.692L230.488 313.941H232.846L233.971 318.423L234.88 321.672H234.961L235.78 318.432L236.905 313.941H239.245L236.086 323.76C235.894 324.354 235.687 324.891 235.465 325.371C235.243 325.851 234.985 326.259 234.691 326.595C234.397 326.931 234.037 327.189 233.611 327.369C233.191 327.549 232.684 327.639 232.09 327.639H231.316ZM244.584 323.895C243.678 323.895 242.889 323.7 242.217 323.31C241.545 322.92 241.023 322.347 240.651 321.591C240.279 320.829 240.093 319.896 240.093 318.792C240.093 317.748 240.288 316.848 240.678 316.092C241.074 315.336 241.614 314.757 242.298 314.355C242.982 313.947 243.756 313.743 244.62 313.743C245.556 313.743 246.357 313.947 247.023 314.355C247.695 314.757 248.211 315.336 248.571 316.092C248.931 316.848 249.111 317.748 249.111 318.792C249.111 319.896 248.91 320.829 248.508 321.591C248.112 322.347 247.572 322.92 246.888 323.31C246.204 323.7 245.436 323.895 244.584 323.895ZM244.62 322.086C245.31 322.086 245.874 321.828 246.312 321.312C246.75 320.796 246.969 319.956 246.969 318.792C246.969 317.712 246.756 316.902 246.33 316.362C245.904 315.822 245.322 315.552 244.584 315.552C243.894 315.552 243.33 315.819 242.892 316.353C242.46 316.887 242.244 317.7 242.244 318.792C242.244 319.902 242.463 320.73 242.901 321.276C243.345 321.816 243.918 322.086 244.62 322.086ZM253.918 323.958C253.066 323.958 252.382 323.661 251.866 323.067C251.35 322.473 251.092 321.621 251.092 320.511V313.932H253.216V319.944C253.216 320.424 253.27 320.82 253.378 321.132C253.486 321.444 253.657 321.672 253.891 321.816C254.125 321.96 254.428 322.032 254.8 322.032C255.25 322.032 255.655 321.903 256.015 321.645C256.381 321.381 256.639 321.084 256.789 320.754V313.932H258.913V323.76H257.104L256.861 320.052L257.023 320.799C256.951 321.339 256.807 321.849 256.591 322.329C256.381 322.809 256.06 323.202 255.628 323.508C255.202 323.808 254.632 323.958 253.918 323.958ZM261.589 323.76V313.941H263.407L263.641 317.721L263.452 317.199C263.494 316.803 263.572 316.401 263.686 315.993C263.806 315.585 263.974 315.21 264.19 314.868C264.412 314.526 264.694 314.253 265.036 314.049C265.384 313.839 265.807 313.734 266.305 313.734C266.425 313.734 266.545 313.74 266.665 313.752C266.785 313.764 266.896 313.785 266.998 313.815V316.083C266.794 316.017 266.575 315.975 266.341 315.957C266.113 315.933 265.903 315.921 265.711 315.921C265.477 315.921 265.225 315.969 264.955 316.065C264.685 316.155 264.436 316.293 264.208 316.479C263.98 316.665 263.815 316.896 263.713 317.172V323.76H261.589ZM271.888 323.913C271.15 323.913 270.49 323.805 269.908 323.589C269.332 323.373 268.873 323.04 268.531 322.59C268.195 322.134 268.009 321.552 267.973 320.844H270.025C270.103 321.348 270.304 321.705 270.628 321.915C270.958 322.125 271.363 322.23 271.843 322.23C272.191 322.23 272.5 322.197 272.77 322.131C273.046 322.059 273.262 321.942 273.418 321.78C273.58 321.612 273.661 321.387 273.661 321.105C273.661 320.907 273.616 320.745 273.526 320.619C273.442 320.487 273.31 320.373 273.13 320.277C272.956 320.181 272.734 320.091 272.464 320.007C272.2 319.923 271.894 319.83 271.546 319.728C270.922 319.548 270.355 319.335 269.845 319.089C269.335 318.843 268.93 318.522 268.63 318.126C268.33 317.724 268.18 317.202 268.18 316.56C268.18 315.684 268.504 315 269.152 314.508C269.8 314.01 270.634 313.761 271.654 313.761C272.314 313.761 272.908 313.857 273.436 314.049C273.97 314.235 274.408 314.547 274.75 314.985C275.092 315.417 275.314 316.005 275.416 316.749L273.364 316.74C273.274 316.392 273.142 316.125 272.968 315.939C272.794 315.747 272.593 315.615 272.365 315.543C272.143 315.465 271.9 315.426 271.636 315.426C271.348 315.426 271.099 315.471 270.889 315.561C270.679 315.651 270.517 315.777 270.403 315.939C270.289 316.101 270.232 316.296 270.232 316.524C270.232 316.788 270.307 317.01 270.457 317.19C270.613 317.364 270.844 317.517 271.15 317.649C271.462 317.775 271.849 317.907 272.311 318.045C272.683 318.153 273.067 318.273 273.463 318.405C273.859 318.531 274.228 318.693 274.57 318.891C274.912 319.089 275.188 319.353 275.398 319.683C275.608 320.007 275.713 320.43 275.713 320.952C275.713 321.882 275.362 322.608 274.66 323.13C273.964 323.652 273.04 323.913 271.888 323.913ZM279.802 319.809C279.754 319.719 279.718 319.596 279.694 319.44C279.67 319.278 279.658 319.074 279.658 318.828C279.658 318.288 279.766 317.844 279.982 317.496C280.204 317.148 280.477 316.854 280.801 316.614C281.131 316.374 281.455 316.14 281.773 315.912C282.097 315.678 282.367 315.411 282.583 315.111C282.805 314.811 282.916 314.427 282.916 313.959C282.916 313.473 282.763 313.086 282.457 312.798C282.157 312.51 281.668 312.366 280.99 312.366C280.252 312.366 279.739 312.567 279.451 312.969C279.169 313.371 279.034 313.986 279.046 314.814L277.084 314.805C277.006 314.055 277.078 313.347 277.3 312.681C277.528 312.009 277.942 311.466 278.542 311.052C279.148 310.632 279.973 310.422 281.017 310.422C281.977 310.422 282.748 310.599 283.33 310.953C283.912 311.301 284.332 311.751 284.59 312.303C284.854 312.849 284.986 313.419 284.986 314.013C284.986 314.649 284.872 315.174 284.644 315.588C284.416 315.996 284.131 316.338 283.789 316.614C283.453 316.884 283.114 317.133 282.772 317.361C282.43 317.583 282.145 317.826 281.917 318.09C281.689 318.354 281.575 318.687 281.575 319.089C281.575 319.197 281.578 319.32 281.584 319.458C281.59 319.596 281.611 319.713 281.647 319.809H279.802ZM280.918 323.895C280.546 323.895 280.231 323.769 279.973 323.517C279.715 323.259 279.586 322.926 279.586 322.518C279.586 322.11 279.715 321.777 279.973 321.519C280.231 321.261 280.549 321.132 280.927 321.132C281.299 321.132 281.611 321.261 281.863 321.519C282.121 321.777 282.25 322.107 282.25 322.509C282.25 322.923 282.118 323.259 281.854 323.517C281.596 323.769 281.284 323.895 280.918 323.895Z" fill="white"/>
</g>
</g>
<defs>
<clipPath id="clip0_302_26766">
<rect width="375" height="808" fill="white"/>
</clipPath>
<clipPath id="clip1_302_26766">
<rect width="375" height="526" fill="white" transform="translate(0 100)"/>
</clipPath>
</defs>
</svg>
