<svg width="71" height="72" viewBox="0 0 71 72" fill="none" xmlns="http://www.w3.org/2000/svg">
<rect x="3.5" y="4" width="64" height="64" rx="18.2857" fill="#4E55E1"/>
<rect x="1.97619" y="2.47619" width="67.0476" height="67.0476" rx="19.8095" stroke="#4E55E1" stroke-opacity="0.4" stroke-width="3.04762"/>
<g filter="url(#filter0_d_749_7147)">
<path d="M20.0004 30.2899C20.0594 24.4339 28.5607 17.4392 35.586 18.0357C39.3053 18.361 40.9583 21.9397 41.0764 25.681C41.0764 26.7655 40.0727 27.633 38.892 27.633C37.7113 27.633 36.7667 26.7113 36.7667 25.6268C36.5896 20.5299 31.5715 21.777 28.2064 24.4881C25.6679 26.6028 22.2438 30.2899 26.6715 32.6757C29.2101 34.0313 32.339 34.953 35.1137 36.0917C43.792 31.2117 53.1198 29.3681 53.1198 29.3681C54.3005 29.1513 55.4222 29.8019 55.7174 30.8864C55.9535 31.9708 55.2451 33.001 54.0644 33.2721C54.0644 33.2721 47.0981 34.8446 39.9547 38.2606C42.4932 39.6704 44.3234 41.4597 43.792 44.4961C43.0836 49.0508 36.4125 52.1415 31.2173 52.8464C26.7896 53.4428 22.539 52.4126 23.1884 47.8037C23.6606 44.2793 27.7342 41.1344 30.8631 38.8028C26.5534 37.2304 19.9414 35.1157 20.0004 30.2899ZM35.645 40.5921C32.9293 42.273 30.4498 44.1708 28.6197 46.4481C26.9667 48.4544 27.2028 49.5388 30.6269 48.8881C33.8149 48.2917 38.5378 46.9361 39.6005 43.7913C40.0727 42.273 36.8848 41.2428 35.645 40.5921Z" fill="white"/>
<path d="M40.3339 38.2744C43.7914 36.6449 47.1858 35.4478 49.7403 34.6526C51.0548 34.2434 52.1462 33.9409 52.9087 33.7406C53.29 33.6405 53.589 33.566 53.7924 33.5166C53.8941 33.4919 53.972 33.4734 54.0243 33.4612L54.0834 33.4475L54.0982 33.4441L54.1018 33.4433L54.1027 33.4431L54.1029 33.443L54.0644 33.2721L54.1029 33.443L54.1035 33.4429C55.3649 33.1532 56.1478 32.0397 55.8885 30.8491L55.8888 30.849L55.8864 30.8404C55.5645 29.6579 54.3477 28.9645 53.0881 29.1958L53.0858 29.1963L53.1198 29.3681C53.0858 29.1963 53.0857 29.1963 53.0856 29.1963L53.0853 29.1964L53.0839 29.1967L53.0786 29.1977L53.0579 29.2019L52.9771 29.2186C52.9061 29.2334 52.801 29.2557 52.6643 29.2858C52.391 29.3461 51.9913 29.4375 51.4848 29.5624C50.4717 29.8122 49.031 30.1961 47.3187 30.7328C43.9143 31.7998 39.4322 33.472 35.1017 35.8975C34.1573 35.5123 33.1716 35.1506 32.1864 34.7891C31.7447 34.6271 31.3032 34.4651 30.8655 34.301C29.4207 33.7594 28.0129 33.1934 26.7544 32.5214C25.6713 31.9377 25.0934 31.2882 24.8509 30.6269C24.6086 29.9665 24.6895 29.2632 24.9883 28.5478C25.5901 27.1067 27.0494 25.6801 28.3175 24.6236C29.9846 23.2808 32.0422 22.3177 33.6835 22.3046C34.4988 22.2981 35.1969 22.5255 35.7027 23.0402C36.2096 23.5559 36.5478 24.3845 36.5915 25.63C36.5934 26.8175 37.6236 27.8082 38.892 27.8082C40.1486 27.8082 41.2515 26.8818 41.2515 25.681H41.2516L41.2514 25.6755C41.1917 23.7838 40.744 21.9204 39.8294 20.4833C38.9113 19.0408 37.5223 18.0292 35.6012 17.8612L35.6008 17.8612C32.0294 17.5579 28.1045 19.1825 25.0715 21.6063C22.0427 24.0267 19.8556 27.2836 19.8252 30.288C19.7946 32.7955 21.5011 34.5772 23.7025 35.916C25.6691 37.1121 28.0727 37.9803 30.0932 38.7101C30.23 38.7596 30.3651 38.8083 30.4982 38.8566C28.9964 39.9796 27.3018 41.2886 25.9036 42.7341C24.4267 44.261 23.2587 45.9618 23.0148 47.7798C22.8488 48.959 22.9941 49.9254 23.3903 50.6997C23.7869 51.4745 24.4267 52.0411 25.2212 52.4341C26.8025 53.2161 29.0138 53.3199 31.2407 53.02L31.2408 53.02C33.8591 52.6647 36.8486 51.7089 39.2767 50.2655C41.6985 48.8258 43.598 46.8784 43.9649 44.5247C44.2379 42.9621 43.9032 41.7088 43.1676 40.6673C42.4935 39.7127 41.4889 38.9449 40.3339 38.2744ZM28.7549 46.5595L28.7562 46.5579C30.5499 44.3259 32.9786 42.4562 35.6531 40.7932C35.8779 40.9065 36.1537 41.0304 36.4495 41.1634C36.5575 41.2119 36.6682 41.2616 36.78 41.3125C37.2449 41.5239 37.7377 41.7579 38.1755 42.0171C38.6157 42.2777 38.9865 42.5559 39.2183 42.8507C39.4455 43.1396 39.5289 43.4292 39.4338 43.7373C38.9248 45.2407 37.5324 46.3377 35.836 47.1369C34.1437 47.9342 32.1828 48.4188 30.5947 48.716L30.5942 48.7161C29.7446 48.8775 29.106 48.9285 28.6515 48.889C28.1899 48.8489 27.9624 48.72 27.8672 48.5704C27.7738 48.4237 27.7666 48.191 27.916 47.8351C28.0631 47.4845 28.3459 47.0559 28.7549 46.5595Z" stroke="white" stroke-width="0.350339"/>
</g>
<defs>
<filter id="filter0_d_749_7147" x="19.6497" y="17.6497" width="37.656" height="36.8928" filterUnits="userSpaceOnUse" color-interpolation-filters="sRGB">
<feFlood flood-opacity="0" result="BackgroundImageFix"/>
<feColorMatrix in="SourceAlpha" type="matrix" values="0 0 0 0 0 0 0 0 0 0 0 0 0 0 0 0 0 0 127 0" result="hardAlpha"/>
<feOffset dx="1.19209" dy="1.19209"/>
<feComposite in2="hardAlpha" operator="out"/>
<feColorMatrix type="matrix" values="0 0 0 0 1 0 0 0 0 1 0 0 0 0 1 0 0 0 0.25 0"/>
<feBlend mode="normal" in2="BackgroundImageFix" result="effect1_dropShadow_749_7147"/>
<feBlend mode="normal" in="SourceGraphic" in2="effect1_dropShadow_749_7147" result="shape"/>
</filter>
</defs>
</svg>
