<svg width="54" height="14" viewBox="0 0 54 14" fill="none" xmlns="http://www.w3.org/2000/svg">
<path d="M5.88281 8.8252C4.96297 9.39702 4.12766 10.0401 3.51074 10.8076L3.50977 10.8086C3.36925 10.9792 3.27226 11.1266 3.22168 11.2471C3.17032 11.3694 3.17297 11.4496 3.20508 11.5C3.23784 11.5514 3.316 11.5956 3.47461 11.6094C3.63087 11.6229 3.85046 11.6053 4.14258 11.5498L4.57324 11.4609C5.0203 11.3581 5.50812 11.2123 5.94434 11.0068C6.5277 10.732 7.00673 10.355 7.18164 9.83789C7.2142 9.73206 7.18547 9.63246 7.10742 9.5332C7.02772 9.43197 6.90023 9.3366 6.74902 9.24707C6.59857 9.15799 6.42931 9.07754 6.26953 9.00488C6.12591 8.93958 5.98826 8.87831 5.88281 8.8252ZM24.6836 2.5957C24.5111 2.64271 24.3135 2.75838 24.1133 2.91992C23.9139 3.08078 23.7153 3.28383 23.54 3.5L23.5391 3.50098C23.0708 4.05648 22.6017 4.84071 22.2422 5.7002C23.0231 5.74977 23.7636 5.73178 24.3916 5.27734C25.0122 4.80148 25.2418 4.10305 25.2764 3.55762L25.2803 3.33398C25.2703 2.98467 25.1944 2.77909 25.0908 2.67285C24.9916 2.57147 24.8543 2.5492 24.6836 2.5957ZM46.6865 2.5957C46.514 2.64269 46.3165 2.75834 46.1162 2.91992C45.9168 3.08077 45.7183 3.28383 45.543 3.5L45.542 3.50098C45.0738 4.05647 44.6046 4.84074 44.2451 5.7002C45.0255 5.74972 45.7649 5.7318 46.3926 5.27832L46.5205 5.17383C47.0468 4.70407 47.2472 4.06453 47.2793 3.55762L47.2832 3.33398C47.2732 2.98467 47.1973 2.77909 47.0938 2.67285C46.9946 2.5714 46.8573 2.5492 46.6865 2.5957ZM17.8828 3.27734C17.8422 3.65095 17.5059 3.94923 17.0977 3.9502L17.0986 3.95117C16.6617 3.97124 16.3075 3.65024 16.2842 3.24414L16.2598 3.07812C16.224 2.91562 16.1572 2.76433 16.0664 2.64648C15.9609 2.50966 15.8247 2.41997 15.666 2.40527L15.5967 2.4043C15.4295 2.4126 15.2368 2.51642 15.0322 2.69043C14.8294 2.86304 14.6228 3.09732 14.4287 3.34961C14.1376 3.72815 13.877 4.14388 13.7012 4.44531L13.5557 4.70312C13.1526 5.44359 12.6778 6.6785 12.4023 7.8252C12.2647 8.39831 12.177 8.94647 12.1729 9.39844C12.1687 9.8547 12.2498 10.1958 12.4287 10.373L12.5078 10.4365C12.7077 10.5666 13.012 10.5711 13.3896 10.4775C13.8167 10.3716 14.3155 10.146 14.8086 9.87891C15.7944 9.34493 16.7454 8.65226 17.041 8.44629L17.4326 8.16309C18.3583 7.47284 19.3714 6.58383 20.542 5.50879C20.9551 4.42706 21.5402 3.40539 22.291 2.56445L22.5273 2.31738C22.7909 2.0594 23.132 1.77761 23.5156 1.55273C24.0264 1.25333 24.62 1.05103 25.208 1.14746H25.207C25.7658 1.2338 26.1801 1.50768 26.4561 1.89551C26.7311 2.28224 26.8666 2.77895 26.877 3.30762C26.8975 4.3636 26.419 5.56504 25.5215 6.32324L25.5205 6.32422C25.1143 6.65892 24.4543 6.92699 23.752 7.07715C23.0707 7.22276 22.3406 7.25736 21.75 7.12988C21.5817 7.74985 21.3961 8.62497 21.3887 9.42578C21.3849 9.83793 21.4289 10.2276 21.5439 10.5508C21.6587 10.8732 21.8434 11.1269 22.1211 11.2764L22.2695 11.3467C22.6194 11.4877 23.0045 11.4741 23.3945 11.374C23.8401 11.2597 24.2853 11.0344 24.6797 10.8115L24.9385 10.6494C26.2604 9.78425 27.9948 8.15493 30.125 5.60449C30.1707 5.54872 30.2254 5.50368 30.2832 5.46387L30.9443 3.3877L30.9697 3.32324C31.038 3.17499 31.1688 3.05273 31.3242 2.97266C31.5023 2.88098 31.7193 2.8408 31.9268 2.88086H31.9277L32.0166 2.90332C32.218 2.96396 32.3607 3.08342 32.4424 3.2334C32.5348 3.40324 32.5446 3.60618 32.4795 3.79688L32.4805 3.79785L31.585 6.63184C32.4399 5.52491 33.4925 4.20192 34.9355 3.55664H34.9365L35.1631 3.46973C35.6869 3.29729 36.1657 3.33535 36.5449 3.54688C36.9239 3.75828 37.1957 4.13802 37.3135 4.63281L37.3545 4.85254L37.3828 5.19922C37.4171 6.03643 37.2425 7.06413 37.1055 7.94336C37.0267 8.44871 36.9599 8.905 36.9492 9.25391C36.9439 9.42824 36.953 9.57177 36.9795 9.67969C36.9995 9.76109 37.0279 9.8164 37.0625 9.85059L37.0996 9.87793L37.1006 9.87891L37.1318 9.89062C37.1681 9.89986 37.2208 9.90067 37.293 9.8877C37.3867 9.87079 37.5021 9.83299 37.6328 9.7793C37.894 9.67198 38.2086 9.50396 38.5225 9.32031C38.8359 9.13689 39.1476 8.93912 39.4023 8.77441C39.6521 8.61293 39.8501 8.4812 39.9395 8.42773L40.4443 8.07129C40.9634 7.69663 41.5358 7.25738 42.1533 6.74609C42.5408 5.21882 43.2613 3.72105 44.2939 2.56445L44.5303 2.31738C44.7938 2.05941 45.1349 1.77759 45.5186 1.55273C46.0293 1.25336 46.623 1.05103 47.2109 1.14746H47.21C47.7688 1.23381 48.1831 1.50764 48.459 1.89551C48.734 2.28224 48.8696 2.77895 48.8799 3.30762C48.9004 4.36371 48.4212 5.56506 47.5234 6.32324V6.32422C47.1173 6.65894 46.4572 6.92697 45.7549 7.07715C45.0737 7.22274 44.3435 7.25732 43.7529 7.12988C43.5847 7.74985 43.399 8.62495 43.3916 9.42578C43.3878 9.83793 43.4318 10.2276 43.5469 10.5508C43.6617 10.8731 43.8464 11.1269 44.124 11.2764L44.2725 11.3467C44.6223 11.4877 45.0075 11.4741 45.3975 11.374C45.8431 11.2597 46.2882 11.0344 46.6826 10.8115L46.9414 10.6494C48.2633 9.78423 49.9978 8.15486 52.1279 5.60449C52.3928 5.28122 52.8945 5.22371 53.2432 5.46387C53.5744 5.69214 53.6543 6.11843 53.4434 6.43945L53.3975 6.50195C51.062 9.29976 49.1894 11.078 47.5566 12.0527L47.5557 12.0518C46.2944 12.8176 44.6631 13.4134 43.2109 12.499H43.21C42.2741 11.8902 41.9096 10.8637 41.834 9.77832L41.8223 9.56055C41.8171 9.36421 41.8214 9.1645 41.8291 8.96289C41.6585 9.09337 41.4939 9.21911 41.333 9.33789L40.7803 9.73828C40.2929 10.0833 39.3583 10.7207 38.3916 11.0918C37.4306 11.4607 36.4034 11.5786 35.7666 10.8281V10.8271C35.3438 10.3221 35.2962 9.5491 35.3672 8.72168C35.4029 8.3057 35.4689 7.87067 35.5361 7.44238C35.6035 7.01324 35.6715 6.59047 35.7119 6.19629C35.7424 5.85528 35.7707 5.56909 35.7754 5.34766C35.7777 5.23724 35.7737 5.14538 35.7627 5.07227C35.7515 4.998 35.734 4.94885 35.7119 4.91992C35.6926 4.89458 35.668 4.88192 35.6309 4.88184C35.5894 4.88178 35.53 4.89822 35.4482 4.94043C35.3261 5.00361 35.1668 5.11822 34.96 5.29102L34.7363 5.4834C32.8782 7.14126 31.6704 8.95583 30.4453 10.9824L29.917 11.8643C29.7181 12.189 29.2803 12.3275 28.9102 12.1875V12.1865C28.5183 12.0457 28.3165 11.6623 28.4277 11.2939V11.293L29.1494 9.02441C27.8045 10.422 26.6277 11.4116 25.5537 12.0527L25.5527 12.0518C24.2915 12.8176 22.6601 13.4135 21.208 12.499H21.207C20.2712 11.8902 19.9066 10.8637 19.8311 9.77832L19.8193 9.56055C19.8073 9.10123 19.8319 8.62501 19.8896 8.14258C19.1653 8.76717 18.5026 9.31058 17.8828 9.77441L17.8818 9.77539C17.1817 10.2879 16.0291 11.1121 14.793 11.5859C13.6349 12.0299 12.3871 12.1721 11.3701 11.4404L11.1699 11.2822C10.7786 10.9422 10.5833 10.4304 10.5225 9.83496C10.4617 9.23939 10.5349 8.55271 10.6865 7.85156C10.7747 7.44398 10.8909 7.03084 11.0225 6.62598C10.9279 6.65423 10.8285 6.6828 10.7256 6.71484C9.84668 6.98844 8.67884 7.40108 7.48926 7.96191C7.88667 8.19254 8.23389 8.45481 8.46582 8.7832C8.71827 9.14087 8.83264 9.57104 8.73926 10.1074L8.74023 10.1084C8.61432 10.9179 7.96078 11.5879 7.12793 12.083C6.39749 12.5172 5.51918 12.8231 4.70801 12.9746L4.36523 13.0303C3.59959 13.1334 2.8386 13.097 2.29492 12.8281C2.02201 12.6931 1.80232 12.4985 1.66602 12.2324C1.52975 11.9662 1.47899 11.6331 1.53613 11.2275C1.62013 10.6027 2.02175 10.0179 2.5293 9.49316C3.01022 8.99597 3.59385 8.54635 4.11035 8.16016C3.38906 7.89879 2.49559 7.58851 1.77344 7.14941C1.01654 6.6891 0.428906 6.07604 0.439453 5.21387L0.450195 5.01953C0.545196 4.04229 1.26784 3.0097 2.24414 2.22949C3.28695 1.39617 4.63635 0.837158 5.86426 0.941406L6.10352 0.976562C6.64143 1.08864 7.04124 1.40906 7.31738 1.84277C7.63181 2.33682 7.78608 2.97762 7.80664 3.62793V3.62988C7.80664 4.04274 7.42718 4.36133 6.99512 4.36133C6.55944 4.36113 6.20515 4.02113 6.2041 3.61328L6.19434 3.45898C6.15966 3.11497 6.05195 2.87688 5.89941 2.72168C5.72556 2.5448 5.48525 2.46659 5.20508 2.46875C4.64087 2.47326 3.93254 2.80402 3.35938 3.26562L3.36035 3.2666C2.92429 3.62985 2.42181 4.12061 2.21484 4.61621C2.11228 4.86203 2.08473 5.10412 2.16797 5.33105C2.25137 5.55805 2.44978 5.78104 2.82129 5.98145H2.82227C3.25488 6.21245 3.73868 6.40755 4.23535 6.59375C4.72135 6.77594 5.22128 6.95178 5.69141 7.14355C7.18052 6.30935 8.72183 5.73414 9.89258 5.36719C10.4813 5.18267 10.9769 5.05074 11.3252 4.96484C11.4859 4.92522 11.6151 4.89466 11.708 4.87402C11.851 4.56361 11.9943 4.27867 12.1309 4.03027L12.3916 3.56836C12.6776 3.08381 13.0376 2.54588 13.4639 2.08203C14.0314 1.46449 14.7249 0.970823 15.5293 0.922852L15.8076 0.919922C16.4356 0.946098 16.907 1.20242 17.2422 1.58398C17.6232 2.01786 17.825 2.60917 17.8867 3.19531V3.20117L17.8828 3.27734Z" fill="black" stroke="black" stroke-width="0.120455"/>
</svg>
